<mxfile host="app.diagrams.net" modified="2024-05-01T09:20:59.935Z" agent="Mozilla/5.0 (Windows NT 10.0; Win64; x64) AppleWebKit/537.36 (KHTML, like Gecko) Chrome/124.0.0.0 Safari/537.36" etag="uEBnhSEj4aNIrbUzuEj6" version="23.1.1" type="github">
  <diagram name="Страница — 1" id="8I-Vcggheu6yVfvGv0Ad">
    <mxGraphModel dx="1434" dy="772" grid="1" gridSize="10" guides="1" tooltips="1" connect="1" arrows="1" fold="1" page="1" pageScale="1" pageWidth="1169" pageHeight="1654" math="0" shadow="0">
      <root>
        <mxCell id="0" />
        <mxCell id="1" parent="0" />
        <mxCell id="JmejZMb90Ql_Zg0pOOFY-19" value="" style="group" vertex="1" connectable="0" parent="1">
          <mxGeometry x="160" y="70" width="170" height="160" as="geometry" />
        </mxCell>
        <mxCell id="JmejZMb90Ql_Zg0pOOFY-11" value="" style="group;movable=1;resizable=1;rotatable=1;deletable=1;editable=1;locked=0;connectable=1;" vertex="1" connectable="0" parent="JmejZMb90Ql_Zg0pOOFY-19">
          <mxGeometry x="80" y="72" width="90" height="88" as="geometry" />
        </mxCell>
        <mxCell id="JmejZMb90Ql_Zg0pOOFY-9" value="" style="rounded=1;whiteSpace=wrap;html=1;fillColor=#ffe6cc;strokeColor=#d79b00;movable=1;resizable=1;rotatable=1;deletable=1;editable=1;locked=0;connectable=1;" vertex="1" parent="JmejZMb90Ql_Zg0pOOFY-11">
          <mxGeometry width="80" height="30" as="geometry" />
        </mxCell>
        <mxCell id="JmejZMb90Ql_Zg0pOOFY-5" value="SnapVue" style="text;html=1;strokeColor=none;fillColor=none;align=center;verticalAlign=middle;whiteSpace=wrap;rounded=0;movable=1;resizable=1;rotatable=1;deletable=1;editable=1;locked=0;connectable=1;" vertex="1" parent="JmejZMb90Ql_Zg0pOOFY-11">
          <mxGeometry x="10" width="60" height="30" as="geometry" />
        </mxCell>
        <mxCell id="JmejZMb90Ql_Zg0pOOFY-18" value="" style="rounded=1;whiteSpace=wrap;html=1;fillColor=none;" vertex="1" parent="JmejZMb90Ql_Zg0pOOFY-11">
          <mxGeometry x="-90" y="-70" width="180" height="130" as="geometry" />
        </mxCell>
        <mxCell id="JmejZMb90Ql_Zg0pOOFY-53" value="" style="group" vertex="1" connectable="0" parent="JmejZMb90Ql_Zg0pOOFY-19">
          <mxGeometry width="160" height="110" as="geometry" />
        </mxCell>
        <mxCell id="JmejZMb90Ql_Zg0pOOFY-1" value="" style="verticalLabelPosition=bottom;verticalAlign=top;html=1;shadow=0;dashed=0;strokeWidth=1;shape=mxgraph.android.text_insertion_point;" vertex="1" parent="JmejZMb90Ql_Zg0pOOFY-53">
          <mxGeometry y="10" width="70" height="100" as="geometry" />
        </mxCell>
        <mxCell id="JmejZMb90Ql_Zg0pOOFY-2" value="&lt;font color=&quot;#ffffff&quot;&gt;Household&lt;/font&gt;" style="text;html=1;align=center;verticalAlign=middle;whiteSpace=wrap;rounded=0;" vertex="1" parent="JmejZMb90Ql_Zg0pOOFY-53">
          <mxGeometry x="5" y="60" width="60" height="30" as="geometry" />
        </mxCell>
        <mxCell id="JmejZMb90Ql_Zg0pOOFY-13" value="" style="group;movable=1;resizable=1;rotatable=1;deletable=1;editable=1;locked=0;connectable=1;" vertex="1" connectable="0" parent="JmejZMb90Ql_Zg0pOOFY-53">
          <mxGeometry x="80" y="36" width="80" height="30" as="geometry" />
        </mxCell>
        <mxCell id="JmejZMb90Ql_Zg0pOOFY-14" value="" style="rounded=1;whiteSpace=wrap;html=1;fillColor=#ffe6cc;strokeColor=#d79b00;movable=1;resizable=1;rotatable=1;deletable=1;editable=1;locked=0;connectable=1;" vertex="1" parent="JmejZMb90Ql_Zg0pOOFY-13">
          <mxGeometry width="80" height="30" as="geometry" />
        </mxCell>
        <mxCell id="JmejZMb90Ql_Zg0pOOFY-6" value="Sensors LoraWan" style="text;html=1;strokeColor=none;fillColor=none;align=center;verticalAlign=middle;whiteSpace=wrap;rounded=0;" vertex="1" parent="JmejZMb90Ql_Zg0pOOFY-13">
          <mxGeometry x="10" width="60" height="30" as="geometry" />
        </mxCell>
        <mxCell id="JmejZMb90Ql_Zg0pOOFY-17" value="" style="shape=image;verticalLabelPosition=bottom;labelBackgroundColor=default;verticalAlign=top;aspect=fixed;imageAspect=0;image=data:image/png,iVBORw0KGgoAAAANSUhEUgAAADYAAAA2CAYAAACMRWrdAAAACXBIWXMAAAsTAAALEwEAmpwYAAAKT2lDQ1BQaG90b3Nob3AgSUNDIHByb2ZpbGUAAHjanVNnVFPpFj333vRCS4iAlEtvUhUIIFJCi4AUkSYqIQkQSoghodkVUcERRUUEG8igiAOOjoCMFVEsDIoK2AfkIaKOg6OIisr74Xuja9a89+bN/rXXPues852zzwfACAyWSDNRNYAMqUIeEeCDx8TG4eQuQIEKJHAAEAizZCFz/SMBAPh+PDwrIsAHvgABeNMLCADATZvAMByH/w/qQplcAYCEAcB0kThLCIAUAEB6jkKmAEBGAYCdmCZTAKAEAGDLY2LjAFAtAGAnf+bTAICd+Jl7AQBblCEVAaCRACATZYhEAGg7AKzPVopFAFgwABRmS8Q5ANgtADBJV2ZIALC3AMDOEAuyAAgMADBRiIUpAAR7AGDIIyN4AISZABRG8lc88SuuEOcqAAB4mbI8uSQ5RYFbCC1xB1dXLh4ozkkXKxQ2YQJhmkAuwnmZGTKBNA/g88wAAKCRFRHgg/P9eM4Ors7ONo62Dl8t6r8G/yJiYuP+5c+rcEAAAOF0ftH+LC+zGoA7BoBt/qIl7gRoXgugdfeLZrIPQLUAoOnaV/Nw+H48PEWhkLnZ2eXk5NhKxEJbYcpXff5nwl/AV/1s+X48/Pf14L7iJIEyXYFHBPjgwsz0TKUcz5IJhGLc5o9H/LcL//wd0yLESWK5WCoU41EScY5EmozzMqUiiUKSKcUl0v9k4t8s+wM+3zUAsGo+AXuRLahdYwP2SycQWHTA4vcAAPK7b8HUKAgDgGiD4c93/+8//UegJQCAZkmScQAAXkQkLlTKsz/HCAAARKCBKrBBG/TBGCzABhzBBdzBC/xgNoRCJMTCQhBCCmSAHHJgKayCQiiGzbAdKmAv1EAdNMBRaIaTcA4uwlW4Dj1wD/phCJ7BKLyBCQRByAgTYSHaiAFiilgjjggXmYX4IcFIBBKLJCDJiBRRIkuRNUgxUopUIFVIHfI9cgI5h1xGupE7yAAygvyGvEcxlIGyUT3UDLVDuag3GoRGogvQZHQxmo8WoJvQcrQaPYw2oefQq2gP2o8+Q8cwwOgYBzPEbDAuxsNCsTgsCZNjy7EirAyrxhqwVqwDu4n1Y8+xdwQSgUXACTYEd0IgYR5BSFhMWE7YSKggHCQ0EdoJNwkDhFHCJyKTqEu0JroR+cQYYjIxh1hILCPWEo8TLxB7iEPENyQSiUMyJ7mQAkmxpFTSEtJG0m5SI+ksqZs0SBojk8naZGuyBzmULCAryIXkneTD5DPkG+Qh8lsKnWJAcaT4U+IoUspqShnlEOU05QZlmDJBVaOaUt2ooVQRNY9aQq2htlKvUYeoEzR1mjnNgxZJS6WtopXTGmgXaPdpr+h0uhHdlR5Ol9BX0svpR+iX6AP0dwwNhhWDx4hnKBmbGAcYZxl3GK+YTKYZ04sZx1QwNzHrmOeZD5lvVVgqtip8FZHKCpVKlSaVGyovVKmqpqreqgtV81XLVI+pXlN9rkZVM1PjqQnUlqtVqp1Q61MbU2epO6iHqmeob1Q/pH5Z/YkGWcNMw09DpFGgsV/jvMYgC2MZs3gsIWsNq4Z1gTXEJrHN2Xx2KruY/R27iz2qqaE5QzNKM1ezUvOUZj8H45hx+Jx0TgnnKKeX836K3hTvKeIpG6Y0TLkxZVxrqpaXllirSKtRq0frvTau7aedpr1Fu1n7gQ5Bx0onXCdHZ4/OBZ3nU9lT3acKpxZNPTr1ri6qa6UbobtEd79up+6Ynr5egJ5Mb6feeb3n+hx9L/1U/W36p/VHDFgGswwkBtsMzhg8xTVxbzwdL8fb8VFDXcNAQ6VhlWGX4YSRudE8o9VGjUYPjGnGXOMk423GbcajJgYmISZLTepN7ppSTbmmKaY7TDtMx83MzaLN1pk1mz0x1zLnm+eb15vft2BaeFostqi2uGVJsuRaplnutrxuhVo5WaVYVVpds0atna0l1rutu6cRp7lOk06rntZnw7Dxtsm2qbcZsOXYBtuutm22fWFnYhdnt8Wuw+6TvZN9un2N/T0HDYfZDqsdWh1+c7RyFDpWOt6azpzuP33F9JbpL2dYzxDP2DPjthPLKcRpnVOb00dnF2e5c4PziIuJS4LLLpc+Lpsbxt3IveRKdPVxXeF60vWdm7Obwu2o26/uNu5p7ofcn8w0nymeWTNz0MPIQ+BR5dE/C5+VMGvfrH5PQ0+BZ7XnIy9jL5FXrdewt6V3qvdh7xc+9j5yn+M+4zw33jLeWV/MN8C3yLfLT8Nvnl+F30N/I/9k/3r/0QCngCUBZwOJgUGBWwL7+Hp8Ib+OPzrbZfay2e1BjKC5QRVBj4KtguXBrSFoyOyQrSH355jOkc5pDoVQfujW0Adh5mGLw34MJ4WHhVeGP45wiFga0TGXNXfR3ENz30T6RJZE3ptnMU85ry1KNSo+qi5qPNo3ujS6P8YuZlnM1VidWElsSxw5LiquNm5svt/87fOH4p3iC+N7F5gvyF1weaHOwvSFpxapLhIsOpZATIhOOJTwQRAqqBaMJfITdyWOCnnCHcJnIi/RNtGI2ENcKh5O8kgqTXqS7JG8NXkkxTOlLOW5hCepkLxMDUzdmzqeFpp2IG0yPTq9MYOSkZBxQqohTZO2Z+pn5mZ2y6xlhbL+xW6Lty8elQfJa7OQrAVZLQq2QqboVFoo1yoHsmdlV2a/zYnKOZarnivN7cyzytuQN5zvn//tEsIS4ZK2pYZLVy0dWOa9rGo5sjxxedsK4xUFK4ZWBqw8uIq2Km3VT6vtV5eufr0mek1rgV7ByoLBtQFr6wtVCuWFfevc1+1dT1gvWd+1YfqGnRs+FYmKrhTbF5cVf9go3HjlG4dvyr+Z3JS0qavEuWTPZtJm6ebeLZ5bDpaql+aXDm4N2dq0Dd9WtO319kXbL5fNKNu7g7ZDuaO/PLi8ZafJzs07P1SkVPRU+lQ27tLdtWHX+G7R7ht7vPY07NXbW7z3/T7JvttVAVVN1WbVZftJ+7P3P66Jqun4lvttXa1ObXHtxwPSA/0HIw6217nU1R3SPVRSj9Yr60cOxx++/p3vdy0NNg1VjZzG4iNwRHnk6fcJ3/ceDTradox7rOEH0x92HWcdL2pCmvKaRptTmvtbYlu6T8w+0dbq3nr8R9sfD5w0PFl5SvNUyWna6YLTk2fyz4ydlZ19fi753GDborZ752PO32oPb++6EHTh0kX/i+c7vDvOXPK4dPKy2+UTV7hXmq86X23qdOo8/pPTT8e7nLuarrlca7nuer21e2b36RueN87d9L158Rb/1tWeOT3dvfN6b/fF9/XfFt1+cif9zsu72Xcn7q28T7xf9EDtQdlD3YfVP1v+3Njv3H9qwHeg89HcR/cGhYPP/pH1jw9DBY+Zj8uGDYbrnjg+OTniP3L96fynQ89kzyaeF/6i/suuFxYvfvjV69fO0ZjRoZfyl5O/bXyl/erA6xmv28bCxh6+yXgzMV70VvvtwXfcdx3vo98PT+R8IH8o/2j5sfVT0Kf7kxmTk/8EA5jz/GMzLdsAAAAgY0hSTQAAeiUAAICDAAD5/wAAgOkAAHUwAADqYAAAOpgAABdvkl/FRgAADMtJREFUeNrsmmuQHNV1x3+3p3t6Hj3vnZld7Wqf2kjIslfCC0IgIhQKJwgoxAqcqChwxSBQVUwID+WLP0iVKqfsFAQqVDkojkMZB2wTMOBg4wQEMgIZGUWoELACrbRZ7YvZ2dnZnWf39CsftDMlY4tAvCuIS7eqv0z17Xv/99xzzv/8zwjXdfl9HBK/p+McsHPAzgE7B+wcsHPA/j8P+eO+KIQ480dkmXA4jN/vxzAMACzLwrZtNZ1Od2Wz2VbTNAMAiqJUksnkeCaTGfZ4PIYsn9qCz+ejUChQKBQ+ch8flynJC3lKjuNg2zaKoiwJh8PXAZcpirK8paWl1XVd3/wB6UKI8Vgs9h6wV9f1p03TnHAcZ0EtJj7uCXyUxSRJQtM0otHo+aqq7lIU5RpJkrAsC8MwEEI05ruui+u6qKqKLMs4joNpmv9uGMauXC53qFwuL4jFFgSYpmn+ZDL5cCgUutmyLMrlMh6Ph2AwSCAQQFXVXwNmGAaVSoVyuYxt2wSDQWRZplgsPprNZreXSqXqpw4slUqd19bW9rJlWenZ2VkURaG5uZl4PI7f70dRFCRJolqtIgmB6vPVrUSlUiGfz5PJZKjVakSjURRFyYyOjm6cmpoa/NSAxePx9e3t7S8bhiGXy2WSySTpdBpFUfB6vY0golernH/hWgxD553Dh/EHg3g8HoQQ1Go1dF1nenqaqakpgsEgqqpaJ0+e3DgzM/PqWQ8esVhsdUdHx4vValWuVCp0dnbS0tKCz+cDoFQqUavVcF2XqmGgSAIHqBoGHkVpRMJIJEI4HCYcDhMIBBgZGcF1Xbmjo+NF13Uvyufzh89aHgsEAuHOzs4nDcNQdV1n2bJlNDc3k8vliMfjbNmyBU3TmM7NIITAEBIfvPICk4cPUlJUPEClXKZarbJx40bWrl3L1NQUzc3NdHd3U61WMQxD7ezsfDIQCIQXNY+dPtLp9IOO4/SUSiU6OjpIJBKUSiUURWFwcBCjVkP2+lD0OS7tXo6ZaKZpcoKS7EftXIlVyDO850VWRyPse+UVKtUqXq+XcrlMU1MTpmkyOjqKoig96XT6weHh4a8uerhPJBIbOjo69ubzeWKxGMlkkkKhQDgcRlEUZuYKVPLT3HrVHyJ393FyycUc6v4CSw69ynf3/S2svIC3hZ+X5TDvlWv84vHvEZQ9pFqWYJomhULhlLWnp6mvMTIysiGXy72yaD4mhCAej3+tVqshyzLRaBRN00ilUkxOTlAoV1jV1Ubv+T1MX3Ir+7q+yHEdVA3arTKYNShPs2riJKvSSznYtIzSNQPURocZe/8oij9Ad3c3tVoNy7IoFov1aHlHHdii+JimaT2qqg5Uq1XC4TCVSoW+vj62bdvG0qUdzGYmWRZVkbfv5r7IFzErcMPgHr5w/130Pfst/q7o508nFfYu7Ydajf79T/NP53cit7aTyc/Rkk5z8803s27dOqrVKqFQiGq1SjAYHAgEAj2LdhWbm5vvSKfT/1CpVBphPZlMYlkWXn+QtWkvM5fewv3xdVztt1nxb3dz4OnHOGIH+dqSGLrs5RtZk6imceMVl/FApIZ0+FVeW7eZf85ZiOODlA0D0zTJ5/NYlkUmkyEYDDI+Pv6X2Wz2oY+7349tsXkmcalpmni9XpT5kH38+HEGjx5l6OBriI7lvNy1jj4Vlv/oL/jxdx+m0raaWjCOaVlI1QpxyWGNT/Dw40+wPa9Aey+XZI+xMqGx59Bh3j5yhLGxMSRJauRDy7IIBoPrF+0qyrL8OcdxUBQFx3EwDANFUUg0NXHNhrX899INvGvABe8+x74nHkP73Dqyk2O0dXfT37GUC7s6aOvuZSyT4eKWBI8//wLPaW0wdpzL9BnWbbqKpkQCSZLQdR3XdRvAVFVdJUnSwod713XTwNI66bVtm3w+jxASEja20sPJ+AV0CCjsf4asG0DMzZJIxHnk0Ufpen0PLoJlF/0Rf77pCvLFEgHd5MfHJ7g60cwF1Tyq42Mqn0eZJ9CpVOp0V1gqhEgDmQW1mKIoQSGEH6BSqaCqKrfffjsbNmwgnYihxtNMGAKtBJXsBCKgMT2V4dotf0ZvxIe+Kk0u9QG9/irXffkrZLJThGSJyUIRPF6YnWZJRCOaTHHp+vXce++9zM7OcuzYMXw+H67r+oHAYjEPIYRokFifz4fXq+DYNq4LDuACju00ajMhKYCH7MF/pDr8c/CGcBHYtj3/jgOOA46NJJ3ij+VymenpaTKZzK+VPIBY8KtYq9V013WrQgitXinfd999CCFwLZNS5iRJ2WE4KNERS2HM7ieaWMITj/0Lm/7kClZeuxuweWfwJE/863eIx+JMVKpcEgqCW4PkEoancvzXL3/J63tP+ZeiKLS0tNSTsu66rr7gwCRJmhJCjEmStMIwDFzXJRqNYlkWHlnBU6vQMvU6P/dfzPpLBoj95PvoAY2JyQluuvHL3LD1FoQk8+Tj32Eqm2VJUxPvS36u72qBt37KL/4gxtvDWSTHbkRd27aRZfnU4bnuqOu6UwsOzHEcyzCMwWg0uqJYLDI+Po6maadIbq3GD4ff4/bP97NyxcW89vnNbNq6lR88/ANSF66jNJvjW9/4OrgusXiCqBbk9beOcvVNW9k8uBf8IZ4wvRz5yZON1OL1epFluZFWDMM46rqutRhRkWKxuD8SiVzn9/uRZZnJyUna29vp7OzElWQm9v0H/fF+Hkn/Mcktj3BJReW1nz2DrfgJBIJYlsX09DTDps31my7nEWkSjr7Jc1+6hUMzOn0rV+Lx+fB6vRw4cIB4PI7X68V1Xcrl8v5Fy2Plcvl527YRQhAOn6omNm3axPbt26mWizz47D6c73+dO2IGe1Hhq7uIWjqTk5PMzs5SLBYpFotoHT3cf34H2qGX0LfvYudoidcf2Y3i93PXXXfR19eH67qNG2HbNuVy+flFZfddXV3PRCKRay3LYnR0FMdxiMViZLNZqobJhSt7WJ7WCO54iuM//R4vPLSTcCQC8+sIAXNzBf7m+mv4Sv8qrn3jBNXhIU4cPoSkeEkmk5RKJRzHob29HVmWmZube3Z4eHjzolbQuVzu25FI5FpJkmhubmZoaIhisUgoFCKqqvzq7ff41dtwZ/RWRg+8hVBUxHwaqEdsn0fioTePsjfSyuGnfgRANBrFcZwGnert7aXONHK53LfPivzW2dn5eCwW22pZFnNzc3zwwQd4vV6EEDQ1NZFKpykWi7z7zjvEYjFs2/4N3pnP5+nv7ycYDDA4eJRyuYwkSdRqNdLpNJFIBFmWmZmZ+eHIyMjWT6p5/J+kgdHR0bsNwxiVJIlIJEIymUTXdYrFIgMDA/z1jh3U5hXh3yaE1n8rFArceedfceONN1KelwqampqIRCJ1kGNjY2N3ny3BVAasQCCwvre3d199/uzsLGNjY6RSKXp6ehgaGqJQKDTC9YeHbdt4PB6WL1/O7OwsJ06coLW1lWg02ljv2LFj6yuVymuAB7DPhvzmAWxN0zYvW7bs6bq6axgGIyMj6LqOqqqoqvqR3zQMA8MwUFWVzs7OhrAqhGBoaGigVCo9PX+rnLOpK0qA4/f7N3Z1dT2lqmrMsqx6WqBYLGLMF41nINWoqkooFCIYDDaaG4Zh5IeHh7dUq9WXT7fU2VaCPYAtSVJba2vrw4lE4qo6SbZtG9M0sSwLy7IafiWEaDAKRVHweDxIkoTruuRyuZ+Nj4/f7jjO2G8Ddba1+8YGAoHA5lQqdbemaZeqqoppmmSz2QY9qtdxHo8HTdMAME2TUqm0b2pq6u8rlcozp/vxp96U+BBAj6qqFwcCgS/F4/HLWlpa1s/MzFCr1ZAkqWGtubm5V4vF4t5SqfSfhmHsn58rzac89zPRbTn9tfnHmdf2k3v27DnhOI72/vvvMzk5SWtrKy+99FJx9+7d3cD0af76kYA+1cbfhzdnGIaZTqetlpYW/H4/0WiUtrY23njjDftDV81Z4H0sXg9akiS2bdvmhkIhdF1vhPF65b1ixQr3k4gznwlga9as4eDBgzzwwAPCdV3m5uYajKOuPg0MDIgbbriBWCz22QcWDAbZuXMnBw4cYM2aNQ2fON0/6y3ckZER2tvbuemmm+jr66PeZF+o8Tt9rZ6TVFXlnnvuYceOHY1k+7/N83g8zMzMoKoqV155Jf39/bz55pscOXLkjEl9UYDt2rXrN+hQKBTitttuIxwON7SJT3owpmmSy+UIBAJcfvnlXHTRRZw4cYLR0dFGE3FRge3cuZPFHLquo+s6sixz3nnnsXr1an6Xv0jILO4QZ/Bj6UwaoWVZlEolSqXSZzPcnwZMPsOBisVceLGBzbiu+815hlGaf6aFEN8EZhZz4f8ZAEt0EiohkKeeAAAAAElFTkSuQmCC;" vertex="1" parent="JmejZMb90Ql_Zg0pOOFY-53">
          <mxGeometry x="60" width="54" height="54" as="geometry" />
        </mxCell>
        <mxCell id="JmejZMb90Ql_Zg0pOOFY-20" value="" style="group" vertex="1" connectable="0" parent="1">
          <mxGeometry x="350" y="65" width="170" height="160" as="geometry" />
        </mxCell>
        <mxCell id="JmejZMb90Ql_Zg0pOOFY-21" value="" style="verticalLabelPosition=bottom;verticalAlign=top;html=1;shadow=0;dashed=0;strokeWidth=1;shape=mxgraph.android.text_insertion_point;" vertex="1" parent="JmejZMb90Ql_Zg0pOOFY-20">
          <mxGeometry y="10" width="70" height="100" as="geometry" />
        </mxCell>
        <mxCell id="JmejZMb90Ql_Zg0pOOFY-22" value="&lt;font color=&quot;#ffffff&quot;&gt;Household&lt;/font&gt;" style="text;html=1;align=center;verticalAlign=middle;whiteSpace=wrap;rounded=0;" vertex="1" parent="JmejZMb90Ql_Zg0pOOFY-20">
          <mxGeometry x="5" y="60" width="60" height="30" as="geometry" />
        </mxCell>
        <mxCell id="JmejZMb90Ql_Zg0pOOFY-23" value="" style="group;movable=1;resizable=1;rotatable=1;deletable=1;editable=1;locked=0;connectable=1;" vertex="1" connectable="0" parent="JmejZMb90Ql_Zg0pOOFY-20">
          <mxGeometry x="80" y="72" width="90" height="88" as="geometry" />
        </mxCell>
        <mxCell id="JmejZMb90Ql_Zg0pOOFY-24" value="" style="rounded=1;whiteSpace=wrap;html=1;fillColor=#ffe6cc;strokeColor=#d79b00;movable=1;resizable=1;rotatable=1;deletable=1;editable=1;locked=0;connectable=1;" vertex="1" parent="JmejZMb90Ql_Zg0pOOFY-23">
          <mxGeometry width="80" height="30" as="geometry" />
        </mxCell>
        <mxCell id="JmejZMb90Ql_Zg0pOOFY-25" value="SnapVue" style="text;html=1;strokeColor=none;fillColor=none;align=center;verticalAlign=middle;whiteSpace=wrap;rounded=0;movable=1;resizable=1;rotatable=1;deletable=1;editable=1;locked=0;connectable=1;" vertex="1" parent="JmejZMb90Ql_Zg0pOOFY-23">
          <mxGeometry x="10" width="60" height="30" as="geometry" />
        </mxCell>
        <mxCell id="JmejZMb90Ql_Zg0pOOFY-26" value="" style="rounded=1;whiteSpace=wrap;html=1;fillColor=none;" vertex="1" parent="JmejZMb90Ql_Zg0pOOFY-23">
          <mxGeometry x="-90" y="-70" width="180" height="130" as="geometry" />
        </mxCell>
        <mxCell id="JmejZMb90Ql_Zg0pOOFY-27" value="" style="group;movable=1;resizable=1;rotatable=1;deletable=1;editable=1;locked=0;connectable=1;" vertex="1" connectable="0" parent="JmejZMb90Ql_Zg0pOOFY-20">
          <mxGeometry x="80" y="36" width="80" height="30" as="geometry" />
        </mxCell>
        <mxCell id="JmejZMb90Ql_Zg0pOOFY-28" value="" style="rounded=1;whiteSpace=wrap;html=1;fillColor=#ffe6cc;strokeColor=#d79b00;movable=1;resizable=1;rotatable=1;deletable=1;editable=1;locked=0;connectable=1;" vertex="1" parent="JmejZMb90Ql_Zg0pOOFY-27">
          <mxGeometry width="80" height="30" as="geometry" />
        </mxCell>
        <mxCell id="JmejZMb90Ql_Zg0pOOFY-29" value="Sensors LoraWan" style="text;html=1;strokeColor=none;fillColor=none;align=center;verticalAlign=middle;whiteSpace=wrap;rounded=0;" vertex="1" parent="JmejZMb90Ql_Zg0pOOFY-27">
          <mxGeometry x="10" width="60" height="30" as="geometry" />
        </mxCell>
        <mxCell id="JmejZMb90Ql_Zg0pOOFY-30" value="" style="shape=image;verticalLabelPosition=bottom;labelBackgroundColor=default;verticalAlign=top;aspect=fixed;imageAspect=0;image=data:image/png,iVBORw0KGgoAAAANSUhEUgAAADYAAAA2CAYAAACMRWrdAAAACXBIWXMAAAsTAAALEwEAmpwYAAAKT2lDQ1BQaG90b3Nob3AgSUNDIHByb2ZpbGUAAHjanVNnVFPpFj333vRCS4iAlEtvUhUIIFJCi4AUkSYqIQkQSoghodkVUcERRUUEG8igiAOOjoCMFVEsDIoK2AfkIaKOg6OIisr74Xuja9a89+bN/rXXPues852zzwfACAyWSDNRNYAMqUIeEeCDx8TG4eQuQIEKJHAAEAizZCFz/SMBAPh+PDwrIsAHvgABeNMLCADATZvAMByH/w/qQplcAYCEAcB0kThLCIAUAEB6jkKmAEBGAYCdmCZTAKAEAGDLY2LjAFAtAGAnf+bTAICd+Jl7AQBblCEVAaCRACATZYhEAGg7AKzPVopFAFgwABRmS8Q5ANgtADBJV2ZIALC3AMDOEAuyAAgMADBRiIUpAAR7AGDIIyN4AISZABRG8lc88SuuEOcqAAB4mbI8uSQ5RYFbCC1xB1dXLh4ozkkXKxQ2YQJhmkAuwnmZGTKBNA/g88wAAKCRFRHgg/P9eM4Ors7ONo62Dl8t6r8G/yJiYuP+5c+rcEAAAOF0ftH+LC+zGoA7BoBt/qIl7gRoXgugdfeLZrIPQLUAoOnaV/Nw+H48PEWhkLnZ2eXk5NhKxEJbYcpXff5nwl/AV/1s+X48/Pf14L7iJIEyXYFHBPjgwsz0TKUcz5IJhGLc5o9H/LcL//wd0yLESWK5WCoU41EScY5EmozzMqUiiUKSKcUl0v9k4t8s+wM+3zUAsGo+AXuRLahdYwP2SycQWHTA4vcAAPK7b8HUKAgDgGiD4c93/+8//UegJQCAZkmScQAAXkQkLlTKsz/HCAAARKCBKrBBG/TBGCzABhzBBdzBC/xgNoRCJMTCQhBCCmSAHHJgKayCQiiGzbAdKmAv1EAdNMBRaIaTcA4uwlW4Dj1wD/phCJ7BKLyBCQRByAgTYSHaiAFiilgjjggXmYX4IcFIBBKLJCDJiBRRIkuRNUgxUopUIFVIHfI9cgI5h1xGupE7yAAygvyGvEcxlIGyUT3UDLVDuag3GoRGogvQZHQxmo8WoJvQcrQaPYw2oefQq2gP2o8+Q8cwwOgYBzPEbDAuxsNCsTgsCZNjy7EirAyrxhqwVqwDu4n1Y8+xdwQSgUXACTYEd0IgYR5BSFhMWE7YSKggHCQ0EdoJNwkDhFHCJyKTqEu0JroR+cQYYjIxh1hILCPWEo8TLxB7iEPENyQSiUMyJ7mQAkmxpFTSEtJG0m5SI+ksqZs0SBojk8naZGuyBzmULCAryIXkneTD5DPkG+Qh8lsKnWJAcaT4U+IoUspqShnlEOU05QZlmDJBVaOaUt2ooVQRNY9aQq2htlKvUYeoEzR1mjnNgxZJS6WtopXTGmgXaPdpr+h0uhHdlR5Ol9BX0svpR+iX6AP0dwwNhhWDx4hnKBmbGAcYZxl3GK+YTKYZ04sZx1QwNzHrmOeZD5lvVVgqtip8FZHKCpVKlSaVGyovVKmqpqreqgtV81XLVI+pXlN9rkZVM1PjqQnUlqtVqp1Q61MbU2epO6iHqmeob1Q/pH5Z/YkGWcNMw09DpFGgsV/jvMYgC2MZs3gsIWsNq4Z1gTXEJrHN2Xx2KruY/R27iz2qqaE5QzNKM1ezUvOUZj8H45hx+Jx0TgnnKKeX836K3hTvKeIpG6Y0TLkxZVxrqpaXllirSKtRq0frvTau7aedpr1Fu1n7gQ5Bx0onXCdHZ4/OBZ3nU9lT3acKpxZNPTr1ri6qa6UbobtEd79up+6Ynr5egJ5Mb6feeb3n+hx9L/1U/W36p/VHDFgGswwkBtsMzhg8xTVxbzwdL8fb8VFDXcNAQ6VhlWGX4YSRudE8o9VGjUYPjGnGXOMk423GbcajJgYmISZLTepN7ppSTbmmKaY7TDtMx83MzaLN1pk1mz0x1zLnm+eb15vft2BaeFostqi2uGVJsuRaplnutrxuhVo5WaVYVVpds0atna0l1rutu6cRp7lOk06rntZnw7Dxtsm2qbcZsOXYBtuutm22fWFnYhdnt8Wuw+6TvZN9un2N/T0HDYfZDqsdWh1+c7RyFDpWOt6azpzuP33F9JbpL2dYzxDP2DPjthPLKcRpnVOb00dnF2e5c4PziIuJS4LLLpc+Lpsbxt3IveRKdPVxXeF60vWdm7Obwu2o26/uNu5p7ofcn8w0nymeWTNz0MPIQ+BR5dE/C5+VMGvfrH5PQ0+BZ7XnIy9jL5FXrdewt6V3qvdh7xc+9j5yn+M+4zw33jLeWV/MN8C3yLfLT8Nvnl+F30N/I/9k/3r/0QCngCUBZwOJgUGBWwL7+Hp8Ib+OPzrbZfay2e1BjKC5QRVBj4KtguXBrSFoyOyQrSH355jOkc5pDoVQfujW0Adh5mGLw34MJ4WHhVeGP45wiFga0TGXNXfR3ENz30T6RJZE3ptnMU85ry1KNSo+qi5qPNo3ujS6P8YuZlnM1VidWElsSxw5LiquNm5svt/87fOH4p3iC+N7F5gvyF1weaHOwvSFpxapLhIsOpZATIhOOJTwQRAqqBaMJfITdyWOCnnCHcJnIi/RNtGI2ENcKh5O8kgqTXqS7JG8NXkkxTOlLOW5hCepkLxMDUzdmzqeFpp2IG0yPTq9MYOSkZBxQqohTZO2Z+pn5mZ2y6xlhbL+xW6Lty8elQfJa7OQrAVZLQq2QqboVFoo1yoHsmdlV2a/zYnKOZarnivN7cyzytuQN5zvn//tEsIS4ZK2pYZLVy0dWOa9rGo5sjxxedsK4xUFK4ZWBqw8uIq2Km3VT6vtV5eufr0mek1rgV7ByoLBtQFr6wtVCuWFfevc1+1dT1gvWd+1YfqGnRs+FYmKrhTbF5cVf9go3HjlG4dvyr+Z3JS0qavEuWTPZtJm6ebeLZ5bDpaql+aXDm4N2dq0Dd9WtO319kXbL5fNKNu7g7ZDuaO/PLi8ZafJzs07P1SkVPRU+lQ27tLdtWHX+G7R7ht7vPY07NXbW7z3/T7JvttVAVVN1WbVZftJ+7P3P66Jqun4lvttXa1ObXHtxwPSA/0HIw6217nU1R3SPVRSj9Yr60cOxx++/p3vdy0NNg1VjZzG4iNwRHnk6fcJ3/ceDTradox7rOEH0x92HWcdL2pCmvKaRptTmvtbYlu6T8w+0dbq3nr8R9sfD5w0PFl5SvNUyWna6YLTk2fyz4ydlZ19fi753GDborZ752PO32oPb++6EHTh0kX/i+c7vDvOXPK4dPKy2+UTV7hXmq86X23qdOo8/pPTT8e7nLuarrlca7nuer21e2b36RueN87d9L158Rb/1tWeOT3dvfN6b/fF9/XfFt1+cif9zsu72Xcn7q28T7xf9EDtQdlD3YfVP1v+3Njv3H9qwHeg89HcR/cGhYPP/pH1jw9DBY+Zj8uGDYbrnjg+OTniP3L96fynQ89kzyaeF/6i/suuFxYvfvjV69fO0ZjRoZfyl5O/bXyl/erA6xmv28bCxh6+yXgzMV70VvvtwXfcdx3vo98PT+R8IH8o/2j5sfVT0Kf7kxmTk/8EA5jz/GMzLdsAAAAgY0hSTQAAeiUAAICDAAD5/wAAgOkAAHUwAADqYAAAOpgAABdvkl/FRgAADMtJREFUeNrsmmuQHNV1x3+3p3t6Hj3vnZld7Wqf2kjIslfCC0IgIhQKJwgoxAqcqChwxSBQVUwID+WLP0iVKqfsFAQqVDkojkMZB2wTMOBg4wQEMgIZGUWoELACrbRZ7YvZ2dnZnWf39CsftDMlY4tAvCuIS7eqv0z17Xv/99xzzv/8zwjXdfl9HBK/p+McsHPAzgE7B+wcsHPA/j8P+eO+KIQ480dkmXA4jN/vxzAMACzLwrZtNZ1Od2Wz2VbTNAMAiqJUksnkeCaTGfZ4PIYsn9qCz+ejUChQKBQ+ch8flynJC3lKjuNg2zaKoiwJh8PXAZcpirK8paWl1XVd3/wB6UKI8Vgs9h6wV9f1p03TnHAcZ0EtJj7uCXyUxSRJQtM0otHo+aqq7lIU5RpJkrAsC8MwEEI05ruui+u6qKqKLMs4joNpmv9uGMauXC53qFwuL4jFFgSYpmn+ZDL5cCgUutmyLMrlMh6Ph2AwSCAQQFXVXwNmGAaVSoVyuYxt2wSDQWRZplgsPprNZreXSqXqpw4slUqd19bW9rJlWenZ2VkURaG5uZl4PI7f70dRFCRJolqtIgmB6vPVrUSlUiGfz5PJZKjVakSjURRFyYyOjm6cmpoa/NSAxePx9e3t7S8bhiGXy2WSySTpdBpFUfB6vY0golernH/hWgxD553Dh/EHg3g8HoQQ1Go1dF1nenqaqakpgsEgqqpaJ0+e3DgzM/PqWQ8esVhsdUdHx4vValWuVCp0dnbS0tKCz+cDoFQqUavVcF2XqmGgSAIHqBoGHkVpRMJIJEI4HCYcDhMIBBgZGcF1Xbmjo+NF13Uvyufzh89aHgsEAuHOzs4nDcNQdV1n2bJlNDc3k8vliMfjbNmyBU3TmM7NIITAEBIfvPICk4cPUlJUPEClXKZarbJx40bWrl3L1NQUzc3NdHd3U61WMQxD7ezsfDIQCIQXNY+dPtLp9IOO4/SUSiU6OjpIJBKUSiUURWFwcBCjVkP2+lD0OS7tXo6ZaKZpcoKS7EftXIlVyDO850VWRyPse+UVKtUqXq+XcrlMU1MTpmkyOjqKoig96XT6weHh4a8uerhPJBIbOjo69ubzeWKxGMlkkkKhQDgcRlEUZuYKVPLT3HrVHyJ393FyycUc6v4CSw69ynf3/S2svIC3hZ+X5TDvlWv84vHvEZQ9pFqWYJomhULhlLWnp6mvMTIysiGXy72yaD4mhCAej3+tVqshyzLRaBRN00ilUkxOTlAoV1jV1Ubv+T1MX3Ir+7q+yHEdVA3arTKYNShPs2riJKvSSznYtIzSNQPURocZe/8oij9Ad3c3tVoNy7IoFov1aHlHHdii+JimaT2qqg5Uq1XC4TCVSoW+vj62bdvG0qUdzGYmWRZVkbfv5r7IFzErcMPgHr5w/130Pfst/q7o508nFfYu7Ydajf79T/NP53cit7aTyc/Rkk5z8803s27dOqrVKqFQiGq1SjAYHAgEAj2LdhWbm5vvSKfT/1CpVBphPZlMYlkWXn+QtWkvM5fewv3xdVztt1nxb3dz4OnHOGIH+dqSGLrs5RtZk6imceMVl/FApIZ0+FVeW7eZf85ZiOODlA0D0zTJ5/NYlkUmkyEYDDI+Pv6X2Wz2oY+7349tsXkmcalpmni9XpT5kH38+HEGjx5l6OBriI7lvNy1jj4Vlv/oL/jxdx+m0raaWjCOaVlI1QpxyWGNT/Dw40+wPa9Aey+XZI+xMqGx59Bh3j5yhLGxMSRJauRDy7IIBoPrF+0qyrL8OcdxUBQFx3EwDANFUUg0NXHNhrX899INvGvABe8+x74nHkP73Dqyk2O0dXfT37GUC7s6aOvuZSyT4eKWBI8//wLPaW0wdpzL9BnWbbqKpkQCSZLQdR3XdRvAVFVdJUnSwod713XTwNI66bVtm3w+jxASEja20sPJ+AV0CCjsf4asG0DMzZJIxHnk0Ufpen0PLoJlF/0Rf77pCvLFEgHd5MfHJ7g60cwF1Tyq42Mqn0eZJ9CpVOp0V1gqhEgDmQW1mKIoQSGEH6BSqaCqKrfffjsbNmwgnYihxtNMGAKtBJXsBCKgMT2V4dotf0ZvxIe+Kk0u9QG9/irXffkrZLJThGSJyUIRPF6YnWZJRCOaTHHp+vXce++9zM7OcuzYMXw+H67r+oHAYjEPIYRokFifz4fXq+DYNq4LDuACju00ajMhKYCH7MF/pDr8c/CGcBHYtj3/jgOOA46NJJ3ij+VymenpaTKZzK+VPIBY8KtYq9V013WrQgitXinfd999CCFwLZNS5iRJ2WE4KNERS2HM7ieaWMITj/0Lm/7kClZeuxuweWfwJE/863eIx+JMVKpcEgqCW4PkEoancvzXL3/J63tP+ZeiKLS0tNSTsu66rr7gwCRJmhJCjEmStMIwDFzXJRqNYlkWHlnBU6vQMvU6P/dfzPpLBoj95PvoAY2JyQluuvHL3LD1FoQk8+Tj32Eqm2VJUxPvS36u72qBt37KL/4gxtvDWSTHbkRd27aRZfnU4bnuqOu6UwsOzHEcyzCMwWg0uqJYLDI+Po6maadIbq3GD4ff4/bP97NyxcW89vnNbNq6lR88/ANSF66jNJvjW9/4OrgusXiCqBbk9beOcvVNW9k8uBf8IZ4wvRz5yZON1OL1epFluZFWDMM46rqutRhRkWKxuD8SiVzn9/uRZZnJyUna29vp7OzElWQm9v0H/fF+Hkn/Mcktj3BJReW1nz2DrfgJBIJYlsX09DTDps31my7nEWkSjr7Jc1+6hUMzOn0rV+Lx+fB6vRw4cIB4PI7X68V1Xcrl8v5Fy2Plcvl527YRQhAOn6omNm3axPbt26mWizz47D6c73+dO2IGe1Hhq7uIWjqTk5PMzs5SLBYpFotoHT3cf34H2qGX0LfvYudoidcf2Y3i93PXXXfR19eH67qNG2HbNuVy+flFZfddXV3PRCKRay3LYnR0FMdxiMViZLNZqobJhSt7WJ7WCO54iuM//R4vPLSTcCQC8+sIAXNzBf7m+mv4Sv8qrn3jBNXhIU4cPoSkeEkmk5RKJRzHob29HVmWmZube3Z4eHjzolbQuVzu25FI5FpJkmhubmZoaIhisUgoFCKqqvzq7ff41dtwZ/RWRg+8hVBUxHwaqEdsn0fioTePsjfSyuGnfgRANBrFcZwGnert7aXONHK53LfPivzW2dn5eCwW22pZFnNzc3zwwQd4vV6EEDQ1NZFKpykWi7z7zjvEYjFs2/4N3pnP5+nv7ycYDDA4eJRyuYwkSdRqNdLpNJFIBFmWmZmZ+eHIyMjWT6p5/J+kgdHR0bsNwxiVJIlIJEIymUTXdYrFIgMDA/z1jh3U5hXh3yaE1n8rFArceedfceONN1KelwqampqIRCJ1kGNjY2N3ny3BVAasQCCwvre3d199/uzsLGNjY6RSKXp6ehgaGqJQKDTC9YeHbdt4PB6WL1/O7OwsJ06coLW1lWg02ljv2LFj6yuVymuAB7DPhvzmAWxN0zYvW7bs6bq6axgGIyMj6LqOqqqoqvqR3zQMA8MwUFWVzs7OhrAqhGBoaGigVCo9PX+rnLOpK0qA4/f7N3Z1dT2lqmrMsqx6WqBYLGLMF41nINWoqkooFCIYDDaaG4Zh5IeHh7dUq9WXT7fU2VaCPYAtSVJba2vrw4lE4qo6SbZtG9M0sSwLy7IafiWEaDAKRVHweDxIkoTruuRyuZ+Nj4/f7jjO2G8Ddba1+8YGAoHA5lQqdbemaZeqqoppmmSz2QY9qtdxHo8HTdMAME2TUqm0b2pq6u8rlcozp/vxp96U+BBAj6qqFwcCgS/F4/HLWlpa1s/MzFCr1ZAkqWGtubm5V4vF4t5SqfSfhmHsn58rzac89zPRbTn9tfnHmdf2k3v27DnhOI72/vvvMzk5SWtrKy+99FJx9+7d3cD0af76kYA+1cbfhzdnGIaZTqetlpYW/H4/0WiUtrY23njjDftDV81Z4H0sXg9akiS2bdvmhkIhdF1vhPF65b1ixQr3k4gznwlga9as4eDBgzzwwAPCdV3m5uYajKOuPg0MDIgbbriBWCz22QcWDAbZuXMnBw4cYM2aNQ2fON0/6y3ckZER2tvbuemmm+jr66PeZF+o8Tt9rZ6TVFXlnnvuYceOHY1k+7/N83g8zMzMoKoqV155Jf39/bz55pscOXLkjEl9UYDt2rXrN+hQKBTitttuIxwON7SJT3owpmmSy+UIBAJcfvnlXHTRRZw4cYLR0dFGE3FRge3cuZPFHLquo+s6sixz3nnnsXr1an6Xv0jILO4QZ/Bj6UwaoWVZlEolSqXSZzPcnwZMPsOBisVceLGBzbiu+815hlGaf6aFEN8EZhZz4f8ZAEt0EiohkKeeAAAAAElFTkSuQmCC;" vertex="1" parent="JmejZMb90Ql_Zg0pOOFY-20">
          <mxGeometry x="60" width="54" height="54" as="geometry" />
        </mxCell>
        <mxCell id="JmejZMb90Ql_Zg0pOOFY-31" value="" style="group" vertex="1" connectable="0" parent="1">
          <mxGeometry x="540" y="65" width="170" height="160" as="geometry" />
        </mxCell>
        <mxCell id="JmejZMb90Ql_Zg0pOOFY-32" value="" style="verticalLabelPosition=bottom;verticalAlign=top;html=1;shadow=0;dashed=0;strokeWidth=1;shape=mxgraph.android.text_insertion_point;" vertex="1" parent="JmejZMb90Ql_Zg0pOOFY-31">
          <mxGeometry y="10" width="70" height="100" as="geometry" />
        </mxCell>
        <mxCell id="JmejZMb90Ql_Zg0pOOFY-33" value="&lt;font color=&quot;#ffffff&quot;&gt;Household&lt;/font&gt;" style="text;html=1;align=center;verticalAlign=middle;whiteSpace=wrap;rounded=0;" vertex="1" parent="JmejZMb90Ql_Zg0pOOFY-31">
          <mxGeometry x="5" y="60" width="60" height="30" as="geometry" />
        </mxCell>
        <mxCell id="JmejZMb90Ql_Zg0pOOFY-34" value="" style="group;movable=1;resizable=1;rotatable=1;deletable=1;editable=1;locked=0;connectable=1;" vertex="1" connectable="0" parent="JmejZMb90Ql_Zg0pOOFY-31">
          <mxGeometry x="80" y="72" width="90" height="88" as="geometry" />
        </mxCell>
        <mxCell id="JmejZMb90Ql_Zg0pOOFY-35" value="" style="rounded=1;whiteSpace=wrap;html=1;fillColor=#ffe6cc;strokeColor=#d79b00;movable=1;resizable=1;rotatable=1;deletable=1;editable=1;locked=0;connectable=1;" vertex="1" parent="JmejZMb90Ql_Zg0pOOFY-34">
          <mxGeometry width="80" height="30" as="geometry" />
        </mxCell>
        <mxCell id="JmejZMb90Ql_Zg0pOOFY-36" value="SnapVue" style="text;html=1;strokeColor=none;fillColor=none;align=center;verticalAlign=middle;whiteSpace=wrap;rounded=0;movable=1;resizable=1;rotatable=1;deletable=1;editable=1;locked=0;connectable=1;" vertex="1" parent="JmejZMb90Ql_Zg0pOOFY-34">
          <mxGeometry x="10" width="60" height="30" as="geometry" />
        </mxCell>
        <mxCell id="JmejZMb90Ql_Zg0pOOFY-37" value="" style="rounded=1;whiteSpace=wrap;html=1;fillColor=none;" vertex="1" parent="JmejZMb90Ql_Zg0pOOFY-34">
          <mxGeometry x="-90" y="-70" width="180" height="130" as="geometry" />
        </mxCell>
        <mxCell id="JmejZMb90Ql_Zg0pOOFY-38" value="" style="group;movable=1;resizable=1;rotatable=1;deletable=1;editable=1;locked=0;connectable=1;" vertex="1" connectable="0" parent="JmejZMb90Ql_Zg0pOOFY-31">
          <mxGeometry x="80" y="36" width="80" height="30" as="geometry" />
        </mxCell>
        <mxCell id="JmejZMb90Ql_Zg0pOOFY-39" value="" style="rounded=1;whiteSpace=wrap;html=1;fillColor=#ffe6cc;strokeColor=#d79b00;movable=1;resizable=1;rotatable=1;deletable=1;editable=1;locked=0;connectable=1;" vertex="1" parent="JmejZMb90Ql_Zg0pOOFY-38">
          <mxGeometry width="80" height="30" as="geometry" />
        </mxCell>
        <mxCell id="JmejZMb90Ql_Zg0pOOFY-40" value="Sensors LoraWan" style="text;html=1;strokeColor=none;fillColor=none;align=center;verticalAlign=middle;whiteSpace=wrap;rounded=0;" vertex="1" parent="JmejZMb90Ql_Zg0pOOFY-38">
          <mxGeometry x="10" width="60" height="30" as="geometry" />
        </mxCell>
        <mxCell id="JmejZMb90Ql_Zg0pOOFY-41" value="" style="shape=image;verticalLabelPosition=bottom;labelBackgroundColor=default;verticalAlign=top;aspect=fixed;imageAspect=0;image=data:image/png,iVBORw0KGgoAAAANSUhEUgAAADYAAAA2CAYAAACMRWrdAAAACXBIWXMAAAsTAAALEwEAmpwYAAAKT2lDQ1BQaG90b3Nob3AgSUNDIHByb2ZpbGUAAHjanVNnVFPpFj333vRCS4iAlEtvUhUIIFJCi4AUkSYqIQkQSoghodkVUcERRUUEG8igiAOOjoCMFVEsDIoK2AfkIaKOg6OIisr74Xuja9a89+bN/rXXPues852zzwfACAyWSDNRNYAMqUIeEeCDx8TG4eQuQIEKJHAAEAizZCFz/SMBAPh+PDwrIsAHvgABeNMLCADATZvAMByH/w/qQplcAYCEAcB0kThLCIAUAEB6jkKmAEBGAYCdmCZTAKAEAGDLY2LjAFAtAGAnf+bTAICd+Jl7AQBblCEVAaCRACATZYhEAGg7AKzPVopFAFgwABRmS8Q5ANgtADBJV2ZIALC3AMDOEAuyAAgMADBRiIUpAAR7AGDIIyN4AISZABRG8lc88SuuEOcqAAB4mbI8uSQ5RYFbCC1xB1dXLh4ozkkXKxQ2YQJhmkAuwnmZGTKBNA/g88wAAKCRFRHgg/P9eM4Ors7ONo62Dl8t6r8G/yJiYuP+5c+rcEAAAOF0ftH+LC+zGoA7BoBt/qIl7gRoXgugdfeLZrIPQLUAoOnaV/Nw+H48PEWhkLnZ2eXk5NhKxEJbYcpXff5nwl/AV/1s+X48/Pf14L7iJIEyXYFHBPjgwsz0TKUcz5IJhGLc5o9H/LcL//wd0yLESWK5WCoU41EScY5EmozzMqUiiUKSKcUl0v9k4t8s+wM+3zUAsGo+AXuRLahdYwP2SycQWHTA4vcAAPK7b8HUKAgDgGiD4c93/+8//UegJQCAZkmScQAAXkQkLlTKsz/HCAAARKCBKrBBG/TBGCzABhzBBdzBC/xgNoRCJMTCQhBCCmSAHHJgKayCQiiGzbAdKmAv1EAdNMBRaIaTcA4uwlW4Dj1wD/phCJ7BKLyBCQRByAgTYSHaiAFiilgjjggXmYX4IcFIBBKLJCDJiBRRIkuRNUgxUopUIFVIHfI9cgI5h1xGupE7yAAygvyGvEcxlIGyUT3UDLVDuag3GoRGogvQZHQxmo8WoJvQcrQaPYw2oefQq2gP2o8+Q8cwwOgYBzPEbDAuxsNCsTgsCZNjy7EirAyrxhqwVqwDu4n1Y8+xdwQSgUXACTYEd0IgYR5BSFhMWE7YSKggHCQ0EdoJNwkDhFHCJyKTqEu0JroR+cQYYjIxh1hILCPWEo8TLxB7iEPENyQSiUMyJ7mQAkmxpFTSEtJG0m5SI+ksqZs0SBojk8naZGuyBzmULCAryIXkneTD5DPkG+Qh8lsKnWJAcaT4U+IoUspqShnlEOU05QZlmDJBVaOaUt2ooVQRNY9aQq2htlKvUYeoEzR1mjnNgxZJS6WtopXTGmgXaPdpr+h0uhHdlR5Ol9BX0svpR+iX6AP0dwwNhhWDx4hnKBmbGAcYZxl3GK+YTKYZ04sZx1QwNzHrmOeZD5lvVVgqtip8FZHKCpVKlSaVGyovVKmqpqreqgtV81XLVI+pXlN9rkZVM1PjqQnUlqtVqp1Q61MbU2epO6iHqmeob1Q/pH5Z/YkGWcNMw09DpFGgsV/jvMYgC2MZs3gsIWsNq4Z1gTXEJrHN2Xx2KruY/R27iz2qqaE5QzNKM1ezUvOUZj8H45hx+Jx0TgnnKKeX836K3hTvKeIpG6Y0TLkxZVxrqpaXllirSKtRq0frvTau7aedpr1Fu1n7gQ5Bx0onXCdHZ4/OBZ3nU9lT3acKpxZNPTr1ri6qa6UbobtEd79up+6Ynr5egJ5Mb6feeb3n+hx9L/1U/W36p/VHDFgGswwkBtsMzhg8xTVxbzwdL8fb8VFDXcNAQ6VhlWGX4YSRudE8o9VGjUYPjGnGXOMk423GbcajJgYmISZLTepN7ppSTbmmKaY7TDtMx83MzaLN1pk1mz0x1zLnm+eb15vft2BaeFostqi2uGVJsuRaplnutrxuhVo5WaVYVVpds0atna0l1rutu6cRp7lOk06rntZnw7Dxtsm2qbcZsOXYBtuutm22fWFnYhdnt8Wuw+6TvZN9un2N/T0HDYfZDqsdWh1+c7RyFDpWOt6azpzuP33F9JbpL2dYzxDP2DPjthPLKcRpnVOb00dnF2e5c4PziIuJS4LLLpc+Lpsbxt3IveRKdPVxXeF60vWdm7Obwu2o26/uNu5p7ofcn8w0nymeWTNz0MPIQ+BR5dE/C5+VMGvfrH5PQ0+BZ7XnIy9jL5FXrdewt6V3qvdh7xc+9j5yn+M+4zw33jLeWV/MN8C3yLfLT8Nvnl+F30N/I/9k/3r/0QCngCUBZwOJgUGBWwL7+Hp8Ib+OPzrbZfay2e1BjKC5QRVBj4KtguXBrSFoyOyQrSH355jOkc5pDoVQfujW0Adh5mGLw34MJ4WHhVeGP45wiFga0TGXNXfR3ENz30T6RJZE3ptnMU85ry1KNSo+qi5qPNo3ujS6P8YuZlnM1VidWElsSxw5LiquNm5svt/87fOH4p3iC+N7F5gvyF1weaHOwvSFpxapLhIsOpZATIhOOJTwQRAqqBaMJfITdyWOCnnCHcJnIi/RNtGI2ENcKh5O8kgqTXqS7JG8NXkkxTOlLOW5hCepkLxMDUzdmzqeFpp2IG0yPTq9MYOSkZBxQqohTZO2Z+pn5mZ2y6xlhbL+xW6Lty8elQfJa7OQrAVZLQq2QqboVFoo1yoHsmdlV2a/zYnKOZarnivN7cyzytuQN5zvn//tEsIS4ZK2pYZLVy0dWOa9rGo5sjxxedsK4xUFK4ZWBqw8uIq2Km3VT6vtV5eufr0mek1rgV7ByoLBtQFr6wtVCuWFfevc1+1dT1gvWd+1YfqGnRs+FYmKrhTbF5cVf9go3HjlG4dvyr+Z3JS0qavEuWTPZtJm6ebeLZ5bDpaql+aXDm4N2dq0Dd9WtO319kXbL5fNKNu7g7ZDuaO/PLi8ZafJzs07P1SkVPRU+lQ27tLdtWHX+G7R7ht7vPY07NXbW7z3/T7JvttVAVVN1WbVZftJ+7P3P66Jqun4lvttXa1ObXHtxwPSA/0HIw6217nU1R3SPVRSj9Yr60cOxx++/p3vdy0NNg1VjZzG4iNwRHnk6fcJ3/ceDTradox7rOEH0x92HWcdL2pCmvKaRptTmvtbYlu6T8w+0dbq3nr8R9sfD5w0PFl5SvNUyWna6YLTk2fyz4ydlZ19fi753GDborZ752PO32oPb++6EHTh0kX/i+c7vDvOXPK4dPKy2+UTV7hXmq86X23qdOo8/pPTT8e7nLuarrlca7nuer21e2b36RueN87d9L158Rb/1tWeOT3dvfN6b/fF9/XfFt1+cif9zsu72Xcn7q28T7xf9EDtQdlD3YfVP1v+3Njv3H9qwHeg89HcR/cGhYPP/pH1jw9DBY+Zj8uGDYbrnjg+OTniP3L96fynQ89kzyaeF/6i/suuFxYvfvjV69fO0ZjRoZfyl5O/bXyl/erA6xmv28bCxh6+yXgzMV70VvvtwXfcdx3vo98PT+R8IH8o/2j5sfVT0Kf7kxmTk/8EA5jz/GMzLdsAAAAgY0hSTQAAeiUAAICDAAD5/wAAgOkAAHUwAADqYAAAOpgAABdvkl/FRgAADMtJREFUeNrsmmuQHNV1x3+3p3t6Hj3vnZld7Wqf2kjIslfCC0IgIhQKJwgoxAqcqChwxSBQVUwID+WLP0iVKqfsFAQqVDkojkMZB2wTMOBg4wQEMgIZGUWoELACrbRZ7YvZ2dnZnWf39CsftDMlY4tAvCuIS7eqv0z17Xv/99xzzv/8zwjXdfl9HBK/p+McsHPAzgE7B+wcsHPA/j8P+eO+KIQ480dkmXA4jN/vxzAMACzLwrZtNZ1Od2Wz2VbTNAMAiqJUksnkeCaTGfZ4PIYsn9qCz+ejUChQKBQ+ch8flynJC3lKjuNg2zaKoiwJh8PXAZcpirK8paWl1XVd3/wB6UKI8Vgs9h6wV9f1p03TnHAcZ0EtJj7uCXyUxSRJQtM0otHo+aqq7lIU5RpJkrAsC8MwEEI05ruui+u6qKqKLMs4joNpmv9uGMauXC53qFwuL4jFFgSYpmn+ZDL5cCgUutmyLMrlMh6Ph2AwSCAQQFXVXwNmGAaVSoVyuYxt2wSDQWRZplgsPprNZreXSqXqpw4slUqd19bW9rJlWenZ2VkURaG5uZl4PI7f70dRFCRJolqtIgmB6vPVrUSlUiGfz5PJZKjVakSjURRFyYyOjm6cmpoa/NSAxePx9e3t7S8bhiGXy2WSySTpdBpFUfB6vY0golernH/hWgxD553Dh/EHg3g8HoQQ1Go1dF1nenqaqakpgsEgqqpaJ0+e3DgzM/PqWQ8esVhsdUdHx4vValWuVCp0dnbS0tKCz+cDoFQqUavVcF2XqmGgSAIHqBoGHkVpRMJIJEI4HCYcDhMIBBgZGcF1Xbmjo+NF13Uvyufzh89aHgsEAuHOzs4nDcNQdV1n2bJlNDc3k8vliMfjbNmyBU3TmM7NIITAEBIfvPICk4cPUlJUPEClXKZarbJx40bWrl3L1NQUzc3NdHd3U61WMQxD7ezsfDIQCIQXNY+dPtLp9IOO4/SUSiU6OjpIJBKUSiUURWFwcBCjVkP2+lD0OS7tXo6ZaKZpcoKS7EftXIlVyDO850VWRyPse+UVKtUqXq+XcrlMU1MTpmkyOjqKoig96XT6weHh4a8uerhPJBIbOjo69ubzeWKxGMlkkkKhQDgcRlEUZuYKVPLT3HrVHyJ393FyycUc6v4CSw69ynf3/S2svIC3hZ+X5TDvlWv84vHvEZQ9pFqWYJomhULhlLWnp6mvMTIysiGXy72yaD4mhCAej3+tVqshyzLRaBRN00ilUkxOTlAoV1jV1Ubv+T1MX3Ir+7q+yHEdVA3arTKYNShPs2riJKvSSznYtIzSNQPURocZe/8oij9Ad3c3tVoNy7IoFov1aHlHHdii+JimaT2qqg5Uq1XC4TCVSoW+vj62bdvG0qUdzGYmWRZVkbfv5r7IFzErcMPgHr5w/130Pfst/q7o508nFfYu7Ydajf79T/NP53cit7aTyc/Rkk5z8803s27dOqrVKqFQiGq1SjAYHAgEAj2LdhWbm5vvSKfT/1CpVBphPZlMYlkWXn+QtWkvM5fewv3xdVztt1nxb3dz4OnHOGIH+dqSGLrs5RtZk6imceMVl/FApIZ0+FVeW7eZf85ZiOODlA0D0zTJ5/NYlkUmkyEYDDI+Pv6X2Wz2oY+7349tsXkmcalpmni9XpT5kH38+HEGjx5l6OBriI7lvNy1jj4Vlv/oL/jxdx+m0raaWjCOaVlI1QpxyWGNT/Dw40+wPa9Aey+XZI+xMqGx59Bh3j5yhLGxMSRJauRDy7IIBoPrF+0qyrL8OcdxUBQFx3EwDANFUUg0NXHNhrX899INvGvABe8+x74nHkP73Dqyk2O0dXfT37GUC7s6aOvuZSyT4eKWBI8//wLPaW0wdpzL9BnWbbqKpkQCSZLQdR3XdRvAVFVdJUnSwod713XTwNI66bVtm3w+jxASEja20sPJ+AV0CCjsf4asG0DMzZJIxHnk0Ufpen0PLoJlF/0Rf77pCvLFEgHd5MfHJ7g60cwF1Tyq42Mqn0eZJ9CpVOp0V1gqhEgDmQW1mKIoQSGEH6BSqaCqKrfffjsbNmwgnYihxtNMGAKtBJXsBCKgMT2V4dotf0ZvxIe+Kk0u9QG9/irXffkrZLJThGSJyUIRPF6YnWZJRCOaTHHp+vXce++9zM7OcuzYMXw+H67r+oHAYjEPIYRokFifz4fXq+DYNq4LDuACju00ajMhKYCH7MF/pDr8c/CGcBHYtj3/jgOOA46NJJ3ij+VymenpaTKZzK+VPIBY8KtYq9V013WrQgitXinfd999CCFwLZNS5iRJ2WE4KNERS2HM7ieaWMITj/0Lm/7kClZeuxuweWfwJE/863eIx+JMVKpcEgqCW4PkEoancvzXL3/J63tP+ZeiKLS0tNSTsu66rr7gwCRJmhJCjEmStMIwDFzXJRqNYlkWHlnBU6vQMvU6P/dfzPpLBoj95PvoAY2JyQluuvHL3LD1FoQk8+Tj32Eqm2VJUxPvS36u72qBt37KL/4gxtvDWSTHbkRd27aRZfnU4bnuqOu6UwsOzHEcyzCMwWg0uqJYLDI+Po6maadIbq3GD4ff4/bP97NyxcW89vnNbNq6lR88/ANSF66jNJvjW9/4OrgusXiCqBbk9beOcvVNW9k8uBf8IZ4wvRz5yZON1OL1epFluZFWDMM46rqutRhRkWKxuD8SiVzn9/uRZZnJyUna29vp7OzElWQm9v0H/fF+Hkn/Mcktj3BJReW1nz2DrfgJBIJYlsX09DTDps31my7nEWkSjr7Jc1+6hUMzOn0rV+Lx+fB6vRw4cIB4PI7X68V1Xcrl8v5Fy2Plcvl527YRQhAOn6omNm3axPbt26mWizz47D6c73+dO2IGe1Hhq7uIWjqTk5PMzs5SLBYpFotoHT3cf34H2qGX0LfvYudoidcf2Y3i93PXXXfR19eH67qNG2HbNuVy+flFZfddXV3PRCKRay3LYnR0FMdxiMViZLNZqobJhSt7WJ7WCO54iuM//R4vPLSTcCQC8+sIAXNzBf7m+mv4Sv8qrn3jBNXhIU4cPoSkeEkmk5RKJRzHob29HVmWmZube3Z4eHjzolbQuVzu25FI5FpJkmhubmZoaIhisUgoFCKqqvzq7ff41dtwZ/RWRg+8hVBUxHwaqEdsn0fioTePsjfSyuGnfgRANBrFcZwGnert7aXONHK53LfPivzW2dn5eCwW22pZFnNzc3zwwQd4vV6EEDQ1NZFKpykWi7z7zjvEYjFs2/4N3pnP5+nv7ycYDDA4eJRyuYwkSdRqNdLpNJFIBFmWmZmZ+eHIyMjWT6p5/J+kgdHR0bsNwxiVJIlIJEIymUTXdYrFIgMDA/z1jh3U5hXh3yaE1n8rFArceedfceONN1KelwqampqIRCJ1kGNjY2N3ny3BVAasQCCwvre3d199/uzsLGNjY6RSKXp6ehgaGqJQKDTC9YeHbdt4PB6WL1/O7OwsJ06coLW1lWg02ljv2LFj6yuVymuAB7DPhvzmAWxN0zYvW7bs6bq6axgGIyMj6LqOqqqoqvqR3zQMA8MwUFWVzs7OhrAqhGBoaGigVCo9PX+rnLOpK0qA4/f7N3Z1dT2lqmrMsqx6WqBYLGLMF41nINWoqkooFCIYDDaaG4Zh5IeHh7dUq9WXT7fU2VaCPYAtSVJba2vrw4lE4qo6SbZtG9M0sSwLy7IafiWEaDAKRVHweDxIkoTruuRyuZ+Nj4/f7jjO2G8Ddba1+8YGAoHA5lQqdbemaZeqqoppmmSz2QY9qtdxHo8HTdMAME2TUqm0b2pq6u8rlcozp/vxp96U+BBAj6qqFwcCgS/F4/HLWlpa1s/MzFCr1ZAkqWGtubm5V4vF4t5SqfSfhmHsn58rzac89zPRbTn9tfnHmdf2k3v27DnhOI72/vvvMzk5SWtrKy+99FJx9+7d3cD0af76kYA+1cbfhzdnGIaZTqetlpYW/H4/0WiUtrY23njjDftDV81Z4H0sXg9akiS2bdvmhkIhdF1vhPF65b1ixQr3k4gznwlga9as4eDBgzzwwAPCdV3m5uYajKOuPg0MDIgbbriBWCz22QcWDAbZuXMnBw4cYM2aNQ2fON0/6y3ckZER2tvbuemmm+jr66PeZF+o8Tt9rZ6TVFXlnnvuYceOHY1k+7/N83g8zMzMoKoqV155Jf39/bz55pscOXLkjEl9UYDt2rXrN+hQKBTitttuIxwON7SJT3owpmmSy+UIBAJcfvnlXHTRRZw4cYLR0dFGE3FRge3cuZPFHLquo+s6sixz3nnnsXr1an6Xv0jILO4QZ/Bj6UwaoWVZlEolSqXSZzPcnwZMPsOBisVceLGBzbiu+815hlGaf6aFEN8EZhZz4f8ZAEt0EiohkKeeAAAAAElFTkSuQmCC;" vertex="1" parent="JmejZMb90Ql_Zg0pOOFY-31">
          <mxGeometry x="60" width="54" height="54" as="geometry" />
        </mxCell>
        <mxCell id="JmejZMb90Ql_Zg0pOOFY-42" value="" style="group" vertex="1" connectable="0" parent="1">
          <mxGeometry x="740" y="65" width="170" height="160" as="geometry" />
        </mxCell>
        <mxCell id="JmejZMb90Ql_Zg0pOOFY-43" value="" style="verticalLabelPosition=bottom;verticalAlign=top;html=1;shadow=0;dashed=0;strokeWidth=1;shape=mxgraph.android.text_insertion_point;" vertex="1" parent="JmejZMb90Ql_Zg0pOOFY-42">
          <mxGeometry y="10" width="70" height="100" as="geometry" />
        </mxCell>
        <mxCell id="JmejZMb90Ql_Zg0pOOFY-44" value="&lt;font color=&quot;#ffffff&quot;&gt;Household&lt;/font&gt;" style="text;html=1;align=center;verticalAlign=middle;whiteSpace=wrap;rounded=0;" vertex="1" parent="JmejZMb90Ql_Zg0pOOFY-42">
          <mxGeometry x="5" y="60" width="60" height="30" as="geometry" />
        </mxCell>
        <mxCell id="JmejZMb90Ql_Zg0pOOFY-45" value="" style="group;movable=1;resizable=1;rotatable=1;deletable=1;editable=1;locked=0;connectable=1;" vertex="1" connectable="0" parent="JmejZMb90Ql_Zg0pOOFY-42">
          <mxGeometry x="80" y="72" width="90" height="88" as="geometry" />
        </mxCell>
        <mxCell id="JmejZMb90Ql_Zg0pOOFY-46" value="" style="rounded=1;whiteSpace=wrap;html=1;fillColor=#ffe6cc;strokeColor=#d79b00;movable=1;resizable=1;rotatable=1;deletable=1;editable=1;locked=0;connectable=1;" vertex="1" parent="JmejZMb90Ql_Zg0pOOFY-45">
          <mxGeometry width="80" height="30" as="geometry" />
        </mxCell>
        <mxCell id="JmejZMb90Ql_Zg0pOOFY-47" value="SnapVue" style="text;html=1;strokeColor=none;fillColor=none;align=center;verticalAlign=middle;whiteSpace=wrap;rounded=0;movable=1;resizable=1;rotatable=1;deletable=1;editable=1;locked=0;connectable=1;" vertex="1" parent="JmejZMb90Ql_Zg0pOOFY-45">
          <mxGeometry x="10" width="60" height="30" as="geometry" />
        </mxCell>
        <mxCell id="JmejZMb90Ql_Zg0pOOFY-48" value="" style="rounded=1;whiteSpace=wrap;html=1;fillColor=none;" vertex="1" parent="JmejZMb90Ql_Zg0pOOFY-45">
          <mxGeometry x="-90" y="-70" width="180" height="130" as="geometry" />
        </mxCell>
        <mxCell id="JmejZMb90Ql_Zg0pOOFY-49" value="" style="group;movable=1;resizable=1;rotatable=1;deletable=1;editable=1;locked=0;connectable=1;" vertex="1" connectable="0" parent="JmejZMb90Ql_Zg0pOOFY-42">
          <mxGeometry x="80" y="36" width="80" height="30" as="geometry" />
        </mxCell>
        <mxCell id="JmejZMb90Ql_Zg0pOOFY-50" value="" style="rounded=1;whiteSpace=wrap;html=1;fillColor=#ffe6cc;strokeColor=#d79b00;movable=1;resizable=1;rotatable=1;deletable=1;editable=1;locked=0;connectable=1;" vertex="1" parent="JmejZMb90Ql_Zg0pOOFY-49">
          <mxGeometry width="80" height="30" as="geometry" />
        </mxCell>
        <mxCell id="JmejZMb90Ql_Zg0pOOFY-51" value="Sensors LoraWan" style="text;html=1;strokeColor=none;fillColor=none;align=center;verticalAlign=middle;whiteSpace=wrap;rounded=0;" vertex="1" parent="JmejZMb90Ql_Zg0pOOFY-49">
          <mxGeometry x="10" width="60" height="30" as="geometry" />
        </mxCell>
        <mxCell id="JmejZMb90Ql_Zg0pOOFY-52" value="" style="shape=image;verticalLabelPosition=bottom;labelBackgroundColor=default;verticalAlign=top;aspect=fixed;imageAspect=0;image=data:image/png,iVBORw0KGgoAAAANSUhEUgAAADYAAAA2CAYAAACMRWrdAAAACXBIWXMAAAsTAAALEwEAmpwYAAAKT2lDQ1BQaG90b3Nob3AgSUNDIHByb2ZpbGUAAHjanVNnVFPpFj333vRCS4iAlEtvUhUIIFJCi4AUkSYqIQkQSoghodkVUcERRUUEG8igiAOOjoCMFVEsDIoK2AfkIaKOg6OIisr74Xuja9a89+bN/rXXPues852zzwfACAyWSDNRNYAMqUIeEeCDx8TG4eQuQIEKJHAAEAizZCFz/SMBAPh+PDwrIsAHvgABeNMLCADATZvAMByH/w/qQplcAYCEAcB0kThLCIAUAEB6jkKmAEBGAYCdmCZTAKAEAGDLY2LjAFAtAGAnf+bTAICd+Jl7AQBblCEVAaCRACATZYhEAGg7AKzPVopFAFgwABRmS8Q5ANgtADBJV2ZIALC3AMDOEAuyAAgMADBRiIUpAAR7AGDIIyN4AISZABRG8lc88SuuEOcqAAB4mbI8uSQ5RYFbCC1xB1dXLh4ozkkXKxQ2YQJhmkAuwnmZGTKBNA/g88wAAKCRFRHgg/P9eM4Ors7ONo62Dl8t6r8G/yJiYuP+5c+rcEAAAOF0ftH+LC+zGoA7BoBt/qIl7gRoXgugdfeLZrIPQLUAoOnaV/Nw+H48PEWhkLnZ2eXk5NhKxEJbYcpXff5nwl/AV/1s+X48/Pf14L7iJIEyXYFHBPjgwsz0TKUcz5IJhGLc5o9H/LcL//wd0yLESWK5WCoU41EScY5EmozzMqUiiUKSKcUl0v9k4t8s+wM+3zUAsGo+AXuRLahdYwP2SycQWHTA4vcAAPK7b8HUKAgDgGiD4c93/+8//UegJQCAZkmScQAAXkQkLlTKsz/HCAAARKCBKrBBG/TBGCzABhzBBdzBC/xgNoRCJMTCQhBCCmSAHHJgKayCQiiGzbAdKmAv1EAdNMBRaIaTcA4uwlW4Dj1wD/phCJ7BKLyBCQRByAgTYSHaiAFiilgjjggXmYX4IcFIBBKLJCDJiBRRIkuRNUgxUopUIFVIHfI9cgI5h1xGupE7yAAygvyGvEcxlIGyUT3UDLVDuag3GoRGogvQZHQxmo8WoJvQcrQaPYw2oefQq2gP2o8+Q8cwwOgYBzPEbDAuxsNCsTgsCZNjy7EirAyrxhqwVqwDu4n1Y8+xdwQSgUXACTYEd0IgYR5BSFhMWE7YSKggHCQ0EdoJNwkDhFHCJyKTqEu0JroR+cQYYjIxh1hILCPWEo8TLxB7iEPENyQSiUMyJ7mQAkmxpFTSEtJG0m5SI+ksqZs0SBojk8naZGuyBzmULCAryIXkneTD5DPkG+Qh8lsKnWJAcaT4U+IoUspqShnlEOU05QZlmDJBVaOaUt2ooVQRNY9aQq2htlKvUYeoEzR1mjnNgxZJS6WtopXTGmgXaPdpr+h0uhHdlR5Ol9BX0svpR+iX6AP0dwwNhhWDx4hnKBmbGAcYZxl3GK+YTKYZ04sZx1QwNzHrmOeZD5lvVVgqtip8FZHKCpVKlSaVGyovVKmqpqreqgtV81XLVI+pXlN9rkZVM1PjqQnUlqtVqp1Q61MbU2epO6iHqmeob1Q/pH5Z/YkGWcNMw09DpFGgsV/jvMYgC2MZs3gsIWsNq4Z1gTXEJrHN2Xx2KruY/R27iz2qqaE5QzNKM1ezUvOUZj8H45hx+Jx0TgnnKKeX836K3hTvKeIpG6Y0TLkxZVxrqpaXllirSKtRq0frvTau7aedpr1Fu1n7gQ5Bx0onXCdHZ4/OBZ3nU9lT3acKpxZNPTr1ri6qa6UbobtEd79up+6Ynr5egJ5Mb6feeb3n+hx9L/1U/W36p/VHDFgGswwkBtsMzhg8xTVxbzwdL8fb8VFDXcNAQ6VhlWGX4YSRudE8o9VGjUYPjGnGXOMk423GbcajJgYmISZLTepN7ppSTbmmKaY7TDtMx83MzaLN1pk1mz0x1zLnm+eb15vft2BaeFostqi2uGVJsuRaplnutrxuhVo5WaVYVVpds0atna0l1rutu6cRp7lOk06rntZnw7Dxtsm2qbcZsOXYBtuutm22fWFnYhdnt8Wuw+6TvZN9un2N/T0HDYfZDqsdWh1+c7RyFDpWOt6azpzuP33F9JbpL2dYzxDP2DPjthPLKcRpnVOb00dnF2e5c4PziIuJS4LLLpc+Lpsbxt3IveRKdPVxXeF60vWdm7Obwu2o26/uNu5p7ofcn8w0nymeWTNz0MPIQ+BR5dE/C5+VMGvfrH5PQ0+BZ7XnIy9jL5FXrdewt6V3qvdh7xc+9j5yn+M+4zw33jLeWV/MN8C3yLfLT8Nvnl+F30N/I/9k/3r/0QCngCUBZwOJgUGBWwL7+Hp8Ib+OPzrbZfay2e1BjKC5QRVBj4KtguXBrSFoyOyQrSH355jOkc5pDoVQfujW0Adh5mGLw34MJ4WHhVeGP45wiFga0TGXNXfR3ENz30T6RJZE3ptnMU85ry1KNSo+qi5qPNo3ujS6P8YuZlnM1VidWElsSxw5LiquNm5svt/87fOH4p3iC+N7F5gvyF1weaHOwvSFpxapLhIsOpZATIhOOJTwQRAqqBaMJfITdyWOCnnCHcJnIi/RNtGI2ENcKh5O8kgqTXqS7JG8NXkkxTOlLOW5hCepkLxMDUzdmzqeFpp2IG0yPTq9MYOSkZBxQqohTZO2Z+pn5mZ2y6xlhbL+xW6Lty8elQfJa7OQrAVZLQq2QqboVFoo1yoHsmdlV2a/zYnKOZarnivN7cyzytuQN5zvn//tEsIS4ZK2pYZLVy0dWOa9rGo5sjxxedsK4xUFK4ZWBqw8uIq2Km3VT6vtV5eufr0mek1rgV7ByoLBtQFr6wtVCuWFfevc1+1dT1gvWd+1YfqGnRs+FYmKrhTbF5cVf9go3HjlG4dvyr+Z3JS0qavEuWTPZtJm6ebeLZ5bDpaql+aXDm4N2dq0Dd9WtO319kXbL5fNKNu7g7ZDuaO/PLi8ZafJzs07P1SkVPRU+lQ27tLdtWHX+G7R7ht7vPY07NXbW7z3/T7JvttVAVVN1WbVZftJ+7P3P66Jqun4lvttXa1ObXHtxwPSA/0HIw6217nU1R3SPVRSj9Yr60cOxx++/p3vdy0NNg1VjZzG4iNwRHnk6fcJ3/ceDTradox7rOEH0x92HWcdL2pCmvKaRptTmvtbYlu6T8w+0dbq3nr8R9sfD5w0PFl5SvNUyWna6YLTk2fyz4ydlZ19fi753GDborZ752PO32oPb++6EHTh0kX/i+c7vDvOXPK4dPKy2+UTV7hXmq86X23qdOo8/pPTT8e7nLuarrlca7nuer21e2b36RueN87d9L158Rb/1tWeOT3dvfN6b/fF9/XfFt1+cif9zsu72Xcn7q28T7xf9EDtQdlD3YfVP1v+3Njv3H9qwHeg89HcR/cGhYPP/pH1jw9DBY+Zj8uGDYbrnjg+OTniP3L96fynQ89kzyaeF/6i/suuFxYvfvjV69fO0ZjRoZfyl5O/bXyl/erA6xmv28bCxh6+yXgzMV70VvvtwXfcdx3vo98PT+R8IH8o/2j5sfVT0Kf7kxmTk/8EA5jz/GMzLdsAAAAgY0hSTQAAeiUAAICDAAD5/wAAgOkAAHUwAADqYAAAOpgAABdvkl/FRgAADMtJREFUeNrsmmuQHNV1x3+3p3t6Hj3vnZld7Wqf2kjIslfCC0IgIhQKJwgoxAqcqChwxSBQVUwID+WLP0iVKqfsFAQqVDkojkMZB2wTMOBg4wQEMgIZGUWoELACrbRZ7YvZ2dnZnWf39CsftDMlY4tAvCuIS7eqv0z17Xv/99xzzv/8zwjXdfl9HBK/p+McsHPAzgE7B+wcsHPA/j8P+eO+KIQ480dkmXA4jN/vxzAMACzLwrZtNZ1Od2Wz2VbTNAMAiqJUksnkeCaTGfZ4PIYsn9qCz+ejUChQKBQ+ch8flynJC3lKjuNg2zaKoiwJh8PXAZcpirK8paWl1XVd3/wB6UKI8Vgs9h6wV9f1p03TnHAcZ0EtJj7uCXyUxSRJQtM0otHo+aqq7lIU5RpJkrAsC8MwEEI05ruui+u6qKqKLMs4joNpmv9uGMauXC53qFwuL4jFFgSYpmn+ZDL5cCgUutmyLMrlMh6Ph2AwSCAQQFXVXwNmGAaVSoVyuYxt2wSDQWRZplgsPprNZreXSqXqpw4slUqd19bW9rJlWenZ2VkURaG5uZl4PI7f70dRFCRJolqtIgmB6vPVrUSlUiGfz5PJZKjVakSjURRFyYyOjm6cmpoa/NSAxePx9e3t7S8bhiGXy2WSySTpdBpFUfB6vY0golernH/hWgxD553Dh/EHg3g8HoQQ1Go1dF1nenqaqakpgsEgqqpaJ0+e3DgzM/PqWQ8esVhsdUdHx4vValWuVCp0dnbS0tKCz+cDoFQqUavVcF2XqmGgSAIHqBoGHkVpRMJIJEI4HCYcDhMIBBgZGcF1Xbmjo+NF13Uvyufzh89aHgsEAuHOzs4nDcNQdV1n2bJlNDc3k8vliMfjbNmyBU3TmM7NIITAEBIfvPICk4cPUlJUPEClXKZarbJx40bWrl3L1NQUzc3NdHd3U61WMQxD7ezsfDIQCIQXNY+dPtLp9IOO4/SUSiU6OjpIJBKUSiUURWFwcBCjVkP2+lD0OS7tXo6ZaKZpcoKS7EftXIlVyDO850VWRyPse+UVKtUqXq+XcrlMU1MTpmkyOjqKoig96XT6weHh4a8uerhPJBIbOjo69ubzeWKxGMlkkkKhQDgcRlEUZuYKVPLT3HrVHyJ393FyycUc6v4CSw69ynf3/S2svIC3hZ+X5TDvlWv84vHvEZQ9pFqWYJomhULhlLWnp6mvMTIysiGXy72yaD4mhCAej3+tVqshyzLRaBRN00ilUkxOTlAoV1jV1Ubv+T1MX3Ir+7q+yHEdVA3arTKYNShPs2riJKvSSznYtIzSNQPURocZe/8oij9Ad3c3tVoNy7IoFov1aHlHHdii+JimaT2qqg5Uq1XC4TCVSoW+vj62bdvG0qUdzGYmWRZVkbfv5r7IFzErcMPgHr5w/130Pfst/q7o508nFfYu7Ydajf79T/NP53cit7aTyc/Rkk5z8803s27dOqrVKqFQiGq1SjAYHAgEAj2LdhWbm5vvSKfT/1CpVBphPZlMYlkWXn+QtWkvM5fewv3xdVztt1nxb3dz4OnHOGIH+dqSGLrs5RtZk6imceMVl/FApIZ0+FVeW7eZf85ZiOODlA0D0zTJ5/NYlkUmkyEYDDI+Pv6X2Wz2oY+7349tsXkmcalpmni9XpT5kH38+HEGjx5l6OBriI7lvNy1jj4Vlv/oL/jxdx+m0raaWjCOaVlI1QpxyWGNT/Dw40+wPa9Aey+XZI+xMqGx59Bh3j5yhLGxMSRJauRDy7IIBoPrF+0qyrL8OcdxUBQFx3EwDANFUUg0NXHNhrX899INvGvABe8+x74nHkP73Dqyk2O0dXfT37GUC7s6aOvuZSyT4eKWBI8//wLPaW0wdpzL9BnWbbqKpkQCSZLQdR3XdRvAVFVdJUnSwod713XTwNI66bVtm3w+jxASEja20sPJ+AV0CCjsf4asG0DMzZJIxHnk0Ufpen0PLoJlF/0Rf77pCvLFEgHd5MfHJ7g60cwF1Tyq42Mqn0eZJ9CpVOp0V1gqhEgDmQW1mKIoQSGEH6BSqaCqKrfffjsbNmwgnYihxtNMGAKtBJXsBCKgMT2V4dotf0ZvxIe+Kk0u9QG9/irXffkrZLJThGSJyUIRPF6YnWZJRCOaTHHp+vXce++9zM7OcuzYMXw+H67r+oHAYjEPIYRokFifz4fXq+DYNq4LDuACju00ajMhKYCH7MF/pDr8c/CGcBHYtj3/jgOOA46NJJ3ij+VymenpaTKZzK+VPIBY8KtYq9V013WrQgitXinfd999CCFwLZNS5iRJ2WE4KNERS2HM7ieaWMITj/0Lm/7kClZeuxuweWfwJE/863eIx+JMVKpcEgqCW4PkEoancvzXL3/J63tP+ZeiKLS0tNSTsu66rr7gwCRJmhJCjEmStMIwDFzXJRqNYlkWHlnBU6vQMvU6P/dfzPpLBoj95PvoAY2JyQluuvHL3LD1FoQk8+Tj32Eqm2VJUxPvS36u72qBt37KL/4gxtvDWSTHbkRd27aRZfnU4bnuqOu6UwsOzHEcyzCMwWg0uqJYLDI+Po6maadIbq3GD4ff4/bP97NyxcW89vnNbNq6lR88/ANSF66jNJvjW9/4OrgusXiCqBbk9beOcvVNW9k8uBf8IZ4wvRz5yZON1OL1epFluZFWDMM46rqutRhRkWKxuD8SiVzn9/uRZZnJyUna29vp7OzElWQm9v0H/fF+Hkn/Mcktj3BJReW1nz2DrfgJBIJYlsX09DTDps31my7nEWkSjr7Jc1+6hUMzOn0rV+Lx+fB6vRw4cIB4PI7X68V1Xcrl8v5Fy2Plcvl527YRQhAOn6omNm3axPbt26mWizz47D6c73+dO2IGe1Hhq7uIWjqTk5PMzs5SLBYpFotoHT3cf34H2qGX0LfvYudoidcf2Y3i93PXXXfR19eH67qNG2HbNuVy+flFZfddXV3PRCKRay3LYnR0FMdxiMViZLNZqobJhSt7WJ7WCO54iuM//R4vPLSTcCQC8+sIAXNzBf7m+mv4Sv8qrn3jBNXhIU4cPoSkeEkmk5RKJRzHob29HVmWmZube3Z4eHjzolbQuVzu25FI5FpJkmhubmZoaIhisUgoFCKqqvzq7ff41dtwZ/RWRg+8hVBUxHwaqEdsn0fioTePsjfSyuGnfgRANBrFcZwGnert7aXONHK53LfPivzW2dn5eCwW22pZFnNzc3zwwQd4vV6EEDQ1NZFKpykWi7z7zjvEYjFs2/4N3pnP5+nv7ycYDDA4eJRyuYwkSdRqNdLpNJFIBFmWmZmZ+eHIyMjWT6p5/J+kgdHR0bsNwxiVJIlIJEIymUTXdYrFIgMDA/z1jh3U5hXh3yaE1n8rFArceedfceONN1KelwqampqIRCJ1kGNjY2N3ny3BVAasQCCwvre3d199/uzsLGNjY6RSKXp6ehgaGqJQKDTC9YeHbdt4PB6WL1/O7OwsJ06coLW1lWg02ljv2LFj6yuVymuAB7DPhvzmAWxN0zYvW7bs6bq6axgGIyMj6LqOqqqoqvqR3zQMA8MwUFWVzs7OhrAqhGBoaGigVCo9PX+rnLOpK0qA4/f7N3Z1dT2lqmrMsqx6WqBYLGLMF41nINWoqkooFCIYDDaaG4Zh5IeHh7dUq9WXT7fU2VaCPYAtSVJba2vrw4lE4qo6SbZtG9M0sSwLy7IafiWEaDAKRVHweDxIkoTruuRyuZ+Nj4/f7jjO2G8Ddba1+8YGAoHA5lQqdbemaZeqqoppmmSz2QY9qtdxHo8HTdMAME2TUqm0b2pq6u8rlcozp/vxp96U+BBAj6qqFwcCgS/F4/HLWlpa1s/MzFCr1ZAkqWGtubm5V4vF4t5SqfSfhmHsn58rzac89zPRbTn9tfnHmdf2k3v27DnhOI72/vvvMzk5SWtrKy+99FJx9+7d3cD0af76kYA+1cbfhzdnGIaZTqetlpYW/H4/0WiUtrY23njjDftDV81Z4H0sXg9akiS2bdvmhkIhdF1vhPF65b1ixQr3k4gznwlga9as4eDBgzzwwAPCdV3m5uYajKOuPg0MDIgbbriBWCz22QcWDAbZuXMnBw4cYM2aNQ2fON0/6y3ckZER2tvbuemmm+jr66PeZF+o8Tt9rZ6TVFXlnnvuYceOHY1k+7/N83g8zMzMoKoqV155Jf39/bz55pscOXLkjEl9UYDt2rXrN+hQKBTitttuIxwON7SJT3owpmmSy+UIBAJcfvnlXHTRRZw4cYLR0dFGE3FRge3cuZPFHLquo+s6sixz3nnnsXr1an6Xv0jILO4QZ/Bj6UwaoWVZlEolSqXSZzPcnwZMPsOBisVceLGBzbiu+815hlGaf6aFEN8EZhZz4f8ZAEt0EiohkKeeAAAAAElFTkSuQmCC;" vertex="1" parent="JmejZMb90Ql_Zg0pOOFY-42">
          <mxGeometry x="60" width="54" height="54" as="geometry" />
        </mxCell>
      </root>
    </mxGraphModel>
  </diagram>
</mxfile>
